<?xml version="1.0" standalone="no"?>
<!DOCTYPE svg PUBLIC "-//W3C//DTD SVG 1.1//EN" "http://www.w3.org/Graphics/SVG/1.1/DTD/svg11.dtd" >
<svg xmlns="http://www.w3.org/2000/svg" xmlns:xlink="http://www.w3.org/1999/xlink" version="1.1">
<metadata></metadata>
<defs>
<font id="verdana_proregular" horiz-adv-x="1302" >
<font-face units-per-em="2048" ascent="1638" descent="-410" />
<missing-glyph horiz-adv-x="720" />
<glyph unicode="&#xfb01;" horiz-adv-x="1280" d="M68 959v158h127v49q0 194 99.5 297t283.5 103q85 0 204 -20v-170h-10l-65 14q-67 14 -103 14q-121 0 -174 -54t-53 -193v-40h713v-1117h-188v962h-519v-962h-188v959h-127zM899 1304v195h208v-195h-208z" />
<glyph unicode="&#xfb02;" horiz-adv-x="1282" d="M68 959v158h127v49q0 192 116 296t339 104q78 0 141 -7l116 -11l188 8v-1556h-188v1389q-118 20 -235 20q-162 0 -228.5 -53.5t-66.5 -194.5v-44h329v-158h-323v-959h-188v959h-127z" />
<glyph unicode="&#xfb03;" horiz-adv-x="1984" d="M68 959v158h127v37q0 200 98.5 306t286.5 106q101 0 206 -20v-172h-10l-58 14q-65 14 -111 14q-119 0 -174.5 -52.5t-55.5 -194.5v-38h525v49q0 194 99.5 297t283.5 103q85 0 204 -20v-170h-10l-65 14q-67 14 -103 14q-121 0 -174 -54t-53 -193v-40h713v-1117h-188v962 h-519v-962h-188v959h-519v-959h-188v959h-127zM1606 1304v195h208v-195h-208z" />
<glyph unicode="&#xfb04;" horiz-adv-x="1989" d="M68 959v158h127v37q0 200 98.5 306t286.5 106q101 0 206 -20v-172h-10l-58 14q-65 14 -111 14q-119 0 -174.5 -52.5t-55.5 -194.5v-38h525v49q0 192 116 296t339 104q78 0 141 -7l116 -11l188 8v-1556h-188v1389q-118 20 -235 20q-162 0 -228.5 -53.5t-66.5 -194.5v-44 h329v-158h-323v-959h-188v959h-519v-959h-188v959h-127z" />
<glyph horiz-adv-x="0" />
<glyph horiz-adv-x="682" />
<glyph unicode=" "  horiz-adv-x="720" />
<glyph unicode="&#x09;" horiz-adv-x="720" />
<glyph unicode="&#xa0;" horiz-adv-x="720" />
<glyph unicode="!" horiz-adv-x="806" d="M291 1489h224l-26 -1079h-170zM301 0v211h204v-211h-204z" />
<glyph unicode="&#x22;" horiz-adv-x="940" d="M168 1556h218l-43 -579h-132zM554 1556h218l-43 -579h-132z" />
<glyph unicode="#" horiz-adv-x="1676" d="M195 421v135h333l92 376h-308v135h343l105 422h129l-105 -422h270l105 422h129l-105 -422h298v-135h-333l-92 -376h308v-135h-343l-104 -421h-129l104 421h-270l-104 -421h-129l104 421h-298zM654 554h274l94 380h-274z" />
<glyph unicode="$" d="M155 85v198h16q191 -128 433 -139v433q-256 47 -349 132t-93 226q0 149 117 251t325 118v272h118v-270q201 -5 385 -75v-196h-14q-190 119 -371 126v-431q30 -5 65 -13q35 -9 61 -14q312 -67 312 -323q0 -155 -120 -257.5t-318 -121.5v-362h-118v357q-254 2 -449 89z M351 961q0 -90 52 -135.5t201 -78.5v413q-100 -6 -176.5 -56t-76.5 -143zM722 146q249 25 249 208q0 93 -59 137t-190 69v-414z" />
<glyph unicode="%" horiz-adv-x="2204" d="M149 1075q0 442 368 442q367 0 367 -441q0 -442 -367 -442q-368 0 -368 441zM327 1075q0 -171 43 -239.5t147 -68.5q102 0 145.5 69t43.5 240q0 170 -44.5 239t-144.5 69q-102 0 -146 -68t-44 -241zM630 0l780 1489h165l-780 -1489h-165zM1320 412q0 442 367 442 q368 0 368 -441q0 -442 -368 -442q-367 0 -367 441zM1498 412q0 -171 43 -239.5t147 -68.5q102 0 145.5 69t43.5 240q0 170 -44.5 239t-144.5 69q-102 0 -146 -68t-44 -241z" />
<glyph unicode="&#x26;" horiz-adv-x="1488" d="M115 409q0 278 279 436q-112 73 -159.5 145.5t-47.5 183.5q0 147 116.5 246.5t297.5 99.5q173 0 280 -88t107 -221q0 -269 -297 -370l371 -362q36 96 30 313v117h195v-96q0 -244 -110 -445l378 -368h-246l-229 224q-202 -255 -482 -255q-210 0 -346.5 121.5t-136.5 318.5 zM320 457q0 -148 85.5 -236.5t242.5 -88.5q214 0 338 183l-478 466q-188 -97 -188 -324zM383 1183q0 -74 38 -131.5t172 -138.5q199 70 199 278q0 94 -56.5 149t-144.5 55q-90 0 -149 -61t-59 -151z" />
<glyph unicode="'" horiz-adv-x="550" d="M164 1556h222l-43 -579h-136z" />
<glyph unicode="(" horiz-adv-x="930" d="M181 572q0 559 373 984h229v-10q-201 -182 -313.5 -440.5t-112.5 -533.5q0 -289 117.5 -546t308.5 -428v-10h-229q-373 425 -373 984z" />
<glyph unicode=")" horiz-adv-x="930" d="M147 -402q191 171 308.5 428t117.5 546q0 281 -114 538t-312 436v10h229q373 -425 373 -984t-373 -984h-229v10z" />
<glyph unicode="*" d="M167 886l381 207l-381 207l65 110l362 -213l-6 359h129l-7 -359l363 212l64 -110l-380 -205l380 -207l-64 -110l-362 213l6 -360h-129l5 360l-361 -214z" />
<glyph unicode="+" horiz-adv-x="1676" d="M210 572v160h545v545h166v-545h545v-160h-545v-545h-166v545h-545z" />
<glyph unicode="," horiz-adv-x="745" d="M147 -370l174 655h254l-282 -655h-146z" />
<glyph unicode="-" horiz-adv-x="930" d="M153 561v181h624v-181h-624z" />
<glyph unicode="." horiz-adv-x="745" d="M253 0v285h239v-285h-239z" />
<glyph unicode="/" horiz-adv-x="930" d="M-30 -304l714 1860h176l-717 -1860h-173z" />
<glyph unicode="0" d="M137 743q0 396 125.5 586t389.5 190t389.5 -190t125.5 -584q0 -399 -124.5 -587.5t-390.5 -188.5q-267 0 -391 189.5t-124 584.5zM340 743q0 -367 75 -488t237 -121t237 126t75 485q0 350 -72 479.5t-240 129.5q-161 0 -236.5 -122.5t-75.5 -488.5z" />
<glyph unicode="1" d="M278 0v152h310v998h-310v136q341 0 347 208h155v-1342h304v-152h-806z" />
<glyph unicode="2" d="M161 0v209l240 206q114 98 236.5 221.5t173 196t71 136t20.5 131.5q0 117 -76 182t-214 65q-203 0 -404 -130h-10v210q202 93 419 93q226 0 357.5 -109.5t131.5 -300.5q0 -195 -132 -365.5t-606 -573.5h801v-171h-1008z" />
<glyph unicode="3" d="M167 63v209h15q209 -130 422 -130q143 0 241.5 77t98.5 237q0 135 -78 202t-265 67h-90v166h70q153 0 243 64t90 185q0 207 -290 207q-204 0 -404 -130h-10v209q205 94 419 94q236 0 362 -97.5t126 -261.5q0 -125 -88 -217t-206 -116v-14q325 -67 325 -373 q0 -205 -145 -338.5t-395 -133.5q-220 0 -441 94z" />
<glyph unicode="4" d="M77 419v230l721 840h184v-910h221v-160h-221v-419h-192v419h-713zM213 579h577v672z" />
<glyph unicode="5" d="M187 56v211h14q208 -125 408 -125q163 0 254 87.5t91 244.5q0 284 -393 284q-130 0 -310 -36v767h896v-175h-703v-396q86 8 166 8q547 0 547 -453q0 -213 -142.5 -358.5t-401.5 -145.5q-227 0 -426 87z" />
<glyph unicode="6" d="M137 654q0 415 190.5 639t538.5 224q111 0 180 -23v-191h-10q-92 42 -200 42q-216 0 -344 -135.5t-148 -362.5q169 104 354 104q232 0 362.5 -124.5t130.5 -343.5q0 -226 -149 -370t-367 -144q-249 0 -393.5 172.5t-144.5 512.5zM339 611q0 -254 95.5 -366.5 t242.5 -112.5t229 90t82 253q0 312 -337 312q-159 0 -308 -82q-4 -43 -4 -94z" />
<glyph unicode="7" d="M154 1314v175h1019v-223l-674 -1266h-214l717 1314h-848z" />
<glyph unicode="8" d="M122 411q0 256 275 384v6q-124 67 -179.5 142t-55.5 188q0 167 137 279.5t352 112.5q221 0 355 -106t134 -273q0 -101 -62.5 -198t-185.5 -153v-6q288 -121 288 -372q0 -194 -151.5 -321.5t-377.5 -127.5q-241 0 -385 124.5t-144 320.5zM324 426q0 -134 92.5 -222.5 t236.5 -88.5q146 0 233.5 75.5t87.5 205.5q0 113 -69.5 181t-381.5 172q-199 -113 -199 -323zM363 1154q0 -112 101.5 -181t303.5 -132q175 112 175 301q0 107 -83 170.5t-210 63.5q-126 0 -206.5 -59.5t-80.5 -162.5z" />
<glyph unicode="9" d="M113 1005q0 229 150.5 371.5t365.5 142.5q250 0 394 -169.5t144 -515.5q0 -413 -189.5 -638t-539.5 -225q-111 0 -180 23v191h10q88 -42 200 -42q223 0 348 134t144 364q-169 -104 -354 -104q-230 0 -361.5 124.5t-131.5 343.5zM316 1013q0 -312 337 -312q163 0 308 82 q4 68 4 94q0 257 -94.5 368t-243.5 111q-145 0 -228 -90t-83 -253z" />
<glyph unicode=":" horiz-adv-x="930" d="M346 0v285h239v-285h-239zM346 832v285h239v-285h-239z" />
<glyph unicode=";" horiz-adv-x="930" d="M230 -370l174 655h254l-282 -655h-146zM346 832v285h239v-285h-239z" />
<glyph unicode="&#x3c;" horiz-adv-x="1676" d="M254 590v124l1154 513v-180l-910 -395l910 -395v-180z" />
<glyph unicode="=" horiz-adv-x="1676" d="M245 362v160h1186v-160h-1186zM245 782v160h1186v-160h-1186z" />
<glyph unicode="&#x3e;" horiz-adv-x="1676" d="M268 77v180l910 395l-910 395v180l1154 -513v-124z" />
<glyph unicode="?" horiz-adv-x="1117" d="M160 1245v204q194 70 381 70q213 0 338.5 -104.5t125.5 -275.5q0 -143 -82.5 -257.5t-328.5 -256.5v-225h-179v305l140 81q105 61 175.5 141t70.5 197q0 112 -77 168t-197 56q-178 0 -357 -103h-10zM406 0v211h204v-211h-204z" />
<glyph unicode="@" horiz-adv-x="2048" d="M176 647q0 363 248 617.5t617 254.5q382 0 605.5 -232.5t223.5 -623.5q0 -279 -156 -506h-440l-27 116q-151 -124 -298 -124q-169 0 -269 127t-100 355q0 227 123 362t294 135q126 0 250 -66v48h159v-842h243q41 73 63 187t22 202q0 333 -181 530t-511 197 q-313 0 -519 -214t-206 -525q0 -331 199.5 -535t521.5 -204q190 0 353 46v-142q-157 -36 -354 -36q-376 0 -618.5 243t-242.5 630zM750 634q0 -330 239 -330q121 0 256 104v518q-115 54 -220 54q-130 0 -202.5 -89.5t-72.5 -256.5z" />
<glyph unicode="A" horiz-adv-x="1400" d="M26 0l542 1489h264l542 -1489h-211l-146 415h-644l-146 -415h-201zM433 585h523l-261 731z" />
<glyph unicode="B" horiz-adv-x="1404" d="M200 0v1489h441q203 0 311 -26t176 -102.5t68 -205.5q0 -199 -198 -300v-8q150 -31 237.5 -132.5t87.5 -256.5q0 -205 -147.5 -331.5t-447.5 -126.5h-528zM398 169h262q279 0 368 74.5t89 206.5q0 152 -86.5 212.5t-321.5 60.5h-311v-554zM398 890h256q195 0 265.5 58 t70.5 181q0 91 -58.5 141t-297.5 50h-236v-430z" />
<glyph unicode="C" horiz-adv-x="1430" d="M115 743q0 366 198.5 569.5t531.5 203.5q249 0 505 -131v-235h-15q-233 197 -503 197q-239 0 -375 -161.5t-136 -442.5q0 -277 138 -438t375 -161q285 0 502 196h14v-232q-57 -24 -100 -45q-188 -90 -406 -90q-349 0 -539 202.5t-190 567.5z" />
<glyph unicode="D" horiz-adv-x="1578" d="M200 0v1489h372q336 0 512 -89.5t275 -256t99 -400.5q0 -252 -128.5 -434t-307 -245.5t-446.5 -63.5h-376zM398 170h186q364 0 515.5 150.5t151.5 425.5q0 573 -667 573h-186v-1149z" />
<glyph unicode="E" horiz-adv-x="1295" d="M200 0v1489h981v-176h-783v-408h783v-176h-783v-553h783v-176h-981z" />
<glyph unicode="F" horiz-adv-x="1177" d="M200 0v1489h951v-176h-753v-420h647v-176h-647v-717h-198z" />
<glyph unicode="G" horiz-adv-x="1588" d="M115 746q0 358 209 564t572 206q268 0 545 -134v-235h-18q-257 200 -561 200q-249 0 -395 -160t-146 -435q0 -288 151 -449t415 -161q192 0 359 68v365h-399v174h595v-639q-309 -139 -546 -139q-370 0 -575.5 201.5t-205.5 573.5z" />
<glyph unicode="H" horiz-adv-x="1539" d="M200 0v1489h198v-584h743v584h198v-1489h-198v729h-743v-729h-198z" />
<glyph unicode="I" horiz-adv-x="862" d="M137 0v152h195v1185h-195v152h588v-152h-195v-1185h195v-152h-588z" />
<glyph unicode="J" horiz-adv-x="931" d="M44 8v185h11l79 -22q83 -22 145 -22q167 0 218 69t51 244v869h-315v158h513v-1102q0 -195 -119 -301.5t-321 -106.5q-121 0 -262 29z" />
<glyph unicode="K" horiz-adv-x="1419" d="M205 0v1489h198v-777l723 777h240l-665 -700l696 -789h-257l-589 663l-148 -158v-505h-198z" />
<glyph unicode="L" horiz-adv-x="1140" d="M200 0v1489h198v-1313h744v-176h-942z" />
<glyph unicode="M" horiz-adv-x="1726" d="M200 0v1489h270l397 -829l384 829h275v-1489h-198v1283l-414 -873h-118l-411 873v-1283h-185z" />
<glyph unicode="N" horiz-adv-x="1532" d="M200 0v1489h307l644 -1216v1216h185v-1489h-245l-706 1332v-1332h-185z" />
<glyph unicode="O" horiz-adv-x="1612" d="M115 744q0 365 185 570.5t506 205.5q319 0 505.5 -205t186.5 -571q0 -359 -183.5 -567t-508.5 -208q-319 0 -505 204.5t-186 570.5zM321 744q0 -293 131.5 -448.5t354.5 -155.5t354 156t131 448q0 291 -131 448t-354 157q-226 0 -356 -157t-130 -448z" />
<glyph unicode="P" horiz-adv-x="1235" d="M200 0v1489h404q284 0 427 -118t143 -332q0 -205 -144.5 -344.5t-433.5 -139.5h-198v-555h-198zM398 724h167q403 0 403 310q0 285 -374 285h-196v-595z" />
<glyph unicode="Q" horiz-adv-x="1612" d="M115 744q0 365 185 570.5t506 205.5q319 0 505.5 -205t186.5 -571q0 -272 -111.5 -460t-299.5 -262q4 -111 53 -175.5t183 -64.5q87 0 178 35h27v-182q-111 -28 -238 -28q-173 0 -279 95t-115 274q-41 -7 -90 -7q-319 0 -505 204.5t-186 570.5zM321 744 q0 -293 131.5 -448.5t354.5 -155.5t354 156t131 448q0 291 -131 448t-354 157q-226 0 -356 -157t-130 -448z" />
<glyph unicode="R" horiz-adv-x="1424" d="M200 0v1489h417q303 0 431 -109.5t128 -295.5q0 -311 -304 -433l560 -651h-257l-498 592h-279v-592h-198zM398 757h200q203 0 287 80.5t84 232.5q0 249 -338 249h-233v-562z" />
<glyph unicode="S" horiz-adv-x="1400" d="M134 92v248h14q109 -93 259 -144.5t280 -51.5q184 0 286.5 69t102.5 184q0 127 -83.5 175.5t-274.5 76.5q-227 34 -334.5 78.5t-174 132t-66.5 230.5q0 187 158 306.5t401 119.5q279 0 520 -104v-234h-14q-84 71 -224 119t-283 48q-159 0 -255.5 -66t-96.5 -170 q0 -87 38 -134.5t107.5 -71.5t253.5 -55q343 -57 438.5 -160t95.5 -263q0 -186 -159 -319t-438 -133q-284 0 -551 119z" />
<glyph unicode="T" horiz-adv-x="1262" d="M0 1313v176h1262v-176h-532v-1313h-198v1313h-532z" />
<glyph unicode="U" horiz-adv-x="1499" d="M178 598v891h198v-901q0 -144 29.5 -238t115 -152.5t228.5 -58.5q180 0 277 99.5t97 344.5v906h198v-891q0 -629 -572 -629q-571 0 -571 629z" />
<glyph unicode="V" horiz-adv-x="1400" d="M26 1489h212l467 -1310l467 1310h202l-542 -1489h-264z" />
<glyph unicode="W" horiz-adv-x="2025" d="M92 1489h203l313 -1238l308 1238h201l311 -1250l311 1250h194l-387 -1489h-223l-313 1236l-306 -1236h-218z" />
<glyph unicode="X" horiz-adv-x="1403" d="M68 0l519 744l-507 745h228l401 -605l410 605h217l-514 -736l513 -753h-229l-406 613l-416 -613h-216z" />
<glyph unicode="Y" horiz-adv-x="1260" d="M6 1489h219l407 -666l411 666h211l-524 -836v-653h-198v632z" />
<glyph unicode="Z" horiz-adv-x="1403" d="M126 0v184l913 1129h-879v176h1106v-179l-922 -1134h944v-176h-1162z" />
<glyph unicode="[" horiz-adv-x="930" d="M239 -392v1948h520v-143h-346v-1662h346v-143h-520z" />
<glyph unicode="\" horiz-adv-x="930" d="M70 1556h176l714 -1860h-173z" />
<glyph unicode="]" horiz-adv-x="930" d="M171 -249h346v1662h-346v143h520v-1948h-520v143z" />
<glyph unicode="^" horiz-adv-x="1676" d="M186 682l589 807h126l589 -805h-198l-455 627l-454 -629h-197z" />
<glyph unicode="_" d="M-4 -180h1310v-120h-1310v120z" />
<glyph unicode="`" d="M340 1676h243l179 -374h-149z" />
<glyph unicode="a" horiz-adv-x="1230" d="M104 324q0 202 151.5 299.5t610.5 114.5v29q0 106 -66 158.5t-234 52.5q-153 0 -353 -76h-10v191q203 51 364 51q259 0 372.5 -96.5t113.5 -289.5v-758h-187v119q-135 -99 -224 -124.5t-177 -25.5q-152 0 -256.5 100.5t-104.5 254.5zM298 337q0 -193 235 -193 q165 0 333 131v311q-373 -17 -470.5 -78t-97.5 -171z" />
<glyph unicode="b" horiz-adv-x="1276" d="M185 0v1556h188v-556q175 148 368 148q198 0 312.5 -152t114.5 -429q0 -266 -140 -432t-349 -166q-161 0 -306 83l-12 -52h-176zM373 202q138 -64 268 -64q333 0 333 424q0 407 -279 407q-158 0 -322 -127v-640z" />
<glyph unicode="c" horiz-adv-x="1067" d="M105 557q0 275 150.5 430.5t397.5 155.5q168 0 358 -93v-209h-10q-182 139 -356 139q-165 0 -255 -111t-90 -312q0 -203 90 -311t255 -108q178 0 356 139h10v-207q-192 -95 -358 -95q-257 0 -402.5 151t-145.5 431z" />
<glyph unicode="d" horiz-adv-x="1276" d="M108 550q0 270 144 434t352 164q156 0 299 -76v484h188v-1556h-188v117q-171 -148 -360 -148q-200 0 -317.5 153.5t-117.5 427.5zM302 554q0 -406 286 -406q152 0 315 127v641q-131 60 -267 60q-156 0 -245 -109t-89 -313z" />
<glyph unicode="e" horiz-adv-x="1220" d="M106 552q0 275 149.5 435.5t393.5 160.5q226 0 348.5 -132.5t122.5 -374.5v-102h-823q0 -188 105.5 -294.5t291.5 -106.5q218 0 394 135h10v-205q-226 -94 -402 -94q-279 0 -434.5 150.5t-155.5 427.5zM297 683h640q-2 310 -298 310q-149 0 -239 -87.5t-103 -222.5z" />
<glyph unicode="f" horiz-adv-x="720" d="M68 959v158h127v37q0 200 98.5 306t286.5 106q101 0 206 -20v-172h-10l-58 14q-65 14 -111 14q-119 0 -174.5 -52.5t-55.5 -194.5v-38h339v-158h-333v-959h-188v959h-127z" />
<glyph unicode="g" horiz-adv-x="1276" d="M108 569q0 269 147.5 424t346.5 155q159 0 301 -79l12 48h176v-990q0 -282 -127 -416t-399 -134q-169 0 -340 48v192h10q197 -71 346 -71q169 0 245.5 74t76.5 230v102q-91 -71 -166.5 -103t-193.5 -32q-201 0 -318 144t-117 408zM302 573q0 -196 68.5 -289t216.5 -93 q165 0 316 116v609q-137 63 -268 63q-157 0 -245 -105.5t-88 -300.5z" />
<glyph unicode="h" horiz-adv-x="1296" d="M185 0v1556h188v-563q187 155 375 155q371 0 371 -423v-725h-188v636q0 202 -53 267.5t-183 65.5q-144 0 -322 -135v-834h-188z" />
<glyph unicode="i" horiz-adv-x="562" d="M175 1304v195h212v-195h-212zM187 0v1117h188v-1117h-188z" />
<glyph unicode="j" horiz-adv-x="705" d="M-62 -216h10l60 -19q63 -20 108 -20q107 0 162 51.5t55 262.5v900h-233v158h421v-1144q0 -196 -100 -296t-268 -100q-116 0 -215 28v179zM321 1304v195h212v-195h-212z" />
<glyph unicode="k" horiz-adv-x="1212" d="M193 0v1556h188v-998l543 559h237l-519 -516l557 -601h-248l-448 489l-122 -116v-373h-188z" />
<glyph unicode="l" horiz-adv-x="562" d="M187 0v1556h188v-1556h-188z" />
<glyph unicode="m" horiz-adv-x="1992" d="M185 0v1117h188v-124q187 155 362 155q226 0 312 -181q214 181 409 181q359 0 359 -423v-725h-188v636q0 219 -52.5 276t-171.5 57q-135 0 -316 -140q7 -56 7 -114v-715h-188v636q0 217 -51 275t-173 58q-133 0 -309 -135v-834h-188z" />
<glyph unicode="n" horiz-adv-x="1296" d="M185 0v1117h188v-124q187 155 375 155q371 0 371 -423v-725h-188v636q0 202 -53 267.5t-183 65.5q-144 0 -322 -135v-834h-188z" />
<glyph unicode="o" horiz-adv-x="1243" d="M106 558q0 274 139.5 432t376.5 158q234 0 374.5 -158.5t140.5 -431.5t-140 -431t-375 -158q-236 0 -376 157t-140 432zM300 558q0 -211 84.5 -319t237.5 -108q150 0 235.5 107.5t85.5 319.5q0 428 -321 428q-322 0 -322 -428z" />
<glyph unicode="p" horiz-adv-x="1276" d="M185 -412v1529h188v-117q177 148 368 148q200 0 313.5 -152.5t113.5 -423.5q0 -269 -142.5 -431.5t-351.5 -162.5q-161 0 -301 78v-468h-188zM373 209q133 -62 268 -62q157 0 245 106t88 314q0 402 -281 402q-150 0 -320 -127v-633z" />
<glyph unicode="q" horiz-adv-x="1276" d="M108 555q0 268 143 430.5t351 162.5q157 0 301 -79l12 48h176v-1529h-188v538q-170 -148 -359 -148q-201 0 -318.5 153.5t-117.5 423.5zM302 564q0 -407 284 -407q154 0 317 127v632q-139 63 -268 63q-162 0 -247.5 -110t-85.5 -305z" />
<glyph unicode="r" horiz-adv-x="874" d="M185 0v1117h188v-165q202 165 372 165q65 0 137 -12v-193h-10l-53 10q-59 9 -122 9q-154 0 -324 -138v-793h-188z" />
<glyph unicode="s" horiz-adv-x="1067" d="M110 67v211h10q198 -146 407 -146q264 0 264 166q0 81 -55.5 113.5t-233.5 65.5q-236 44 -311.5 123t-75.5 203q0 148 122 244.5t329 96.5q198 0 373 -84v-201h-10q-180 126 -377 126q-102 0 -173.5 -39.5t-71.5 -117.5t57 -114.5t238 -70.5q150 -28 220 -60t115.5 -96 t45.5 -165q0 -154 -127.5 -251.5t-344.5 -97.5q-207 0 -401 94z" />
<glyph unicode="t" horiz-adv-x="807" d="M62 959v158h127v321h188v-321h388v-158h-388v-509q0 -139 15 -192.5t57 -84t138 -30.5q76 0 168 36h10v-169q-127 -32 -227 -32q-349 0 -349 387v594h-127z" />
<glyph unicode="u" horiz-adv-x="1296" d="M177 392v725h188v-636q0 -188 48 -260.5t189 -72.5q142 0 321 135v834h188v-1117h-188v124q-193 -155 -374 -155q-179 0 -275.5 109t-96.5 314z" />
<glyph unicode="v" horiz-adv-x="1212" d="M61 1117h204l346 -889l343 889h197l-452 -1117h-189z" />
<glyph unicode="w" horiz-adv-x="1676" d="M86 1117h196l205 -865l279 865h155l286 -865l194 865h189l-291 -1117h-174l-287 861l-285 -861h-173z" />
<glyph unicode="x" horiz-adv-x="1212" d="M60 0l436 557l-432 560h237l315 -422l316 422h220l-439 -550l439 -567h-237l-317 429l-319 -429h-219z" />
<glyph unicode="y" horiz-adv-x="1212" d="M61 1117h204l343 -828l346 828h197l-652 -1529h-201l208 466z" />
<glyph unicode="z" horiz-adv-x="1076" d="M93 0v139l651 821h-637v157h871v-134l-654 -824h671v-159h-902z" />
<glyph unicode="{" horiz-adv-x="1300" d="M173 504v156h51q337 0 337 360v149q0 189 112 288t290 99h150v-138h-114q-136 0 -197.5 -63t-61.5 -203v-175q0 -264 -291 -383v-24q291 -119 291 -383v-175q0 -140 61.5 -203t197.5 -63h114v-138h-150q-178 0 -290 99t-112 288v149q0 360 -337 360h-51z" />
<glyph unicode="|" horiz-adv-x="930" d="M378 -392v1948h174v-1948h-174z" />
<glyph unicode="}" horiz-adv-x="1300" d="M187 -254h114q136 0 197.5 63t61.5 203v175q0 264 291 383v24q-291 119 -291 383v175q0 140 -61.5 203t-197.5 63h-114v138h150q179 0 290.5 -100t111.5 -287v-149q0 -360 337 -360h51v-156h-51q-337 0 -337 -360v-149q0 -187 -111.5 -287t-290.5 -100h-150v138z" />
<glyph unicode="~" horiz-adv-x="1676" d="M187 395q6 250 102.5 390.5t261.5 140.5q90 0 164 -38t161 -143q78 -96 129.5 -142.5t113.5 -46.5q193 0 203 371h167q-5 -234 -97.5 -382.5t-266.5 -148.5q-95 0 -167 39t-157 142q-98 121 -145.5 155t-98.5 34q-188 0 -203 -371h-167z" />
<glyph unicode="&#xa1;" horiz-adv-x="806" d="M291 0l26 1079h170l28 -1079h-224zM301 1278v211h204v-211h-204z" />
<glyph unicode="&#xa2;" d="M159 557q0 243 133.5 391.5t354.5 171.5v355h118v-351q196 -5 355 -78v-203h-11q-159 122 -344 135v-839q184 13 344 136h11v-201q-188 -77 -355 -80v-355h-118v359q-227 21 -357.5 164.5t-130.5 394.5zM350 557q0 -365 297 -415v834q-297 -50 -297 -419z" />
<glyph unicode="&#xa3;" d="M137 0v207q117 30 169 125t52 281h-176v138h176v310q0 201 127 329t331 128q147 0 321 -51v-206h-10q-137 90 -300 90q-279 0 -279 -309v-291h415v-138h-415v-61q0 -236 -222 -370v-11h837v-171h-1026z" />
<glyph unicode="&#xa4;" d="M138 258l233 234q-47 76 -47 169q0 92 48 168l-234 237l111 110l235 -235q76 48 168 48q93 0 169 -47l234 234l113 -109l-235 -237q48 -76 48 -169t-48 -169l235 -235l-110 -110l-236 234q-79 -48 -170 -48q-93 0 -169 48l-236 -236zM472 661q0 -75 52 -130t128 -55 q73 0 126.5 55t53.5 130q0 73 -53 129t-127 56t-127 -55t-53 -130z" />
<glyph unicode="&#xa5;" d="M108 1489h212l332 -659l336 659h203l-448 -842v-47h372v-138h-370v-138h370v-138h-370v-186h-188v186h-370v138h370v138h-370v138h372v47z" />
<glyph unicode="&#xa6;" horiz-adv-x="930" d="M378 -392v798h174v-798h-174zM378 758v798h174v-798h-174z" />
<glyph unicode="&#xa7;" d="M172 533q0 202 216 324v7q-185 85 -185 283q0 169 139.5 270.5t382.5 101.5q168 0 346 -57v-194h-10q-190 87 -368 87q-129 0 -212.5 -46.5t-83.5 -132.5q0 -95 64.5 -138t287.5 -94q205 -48 292 -127t87 -216q0 -199 -217 -323v-7q185 -88 185 -281q0 -164 -136 -269.5 t-385 -105.5q-174 0 -346 58v194h10q186 -87 367 -87q134 0 215 48.5t81 135.5q0 80 -41 115.5t-87.5 51.5t-222.5 59q-214 52 -296.5 133.5t-82.5 209.5zM361 579q0 -69 31.5 -113.5t86 -65.5t180.5 -53q48 -12 115 -31q10 5 23 14l30 20q112 82 112 205q0 82 -49 134.5 t-248 98.5q-47 10 -117 30q-164 -92 -164 -239z" />
<glyph unicode="&#xa8;" d="M346 1304v195h199v-195h-199zM759 1304v195h199v-195h-199z" />
<glyph unicode="&#xa9;" horiz-adv-x="2048" d="M159 655q0 358 253.5 611.5t611.5 253.5q357 0 611 -254t254 -611q0 -358 -253.5 -611.5t-611.5 -253.5q-359 0 -612 253t-253 612zM275 655q0 -310 219.5 -532t529.5 -222q309 0 529 222t220 532t-220 532t-529 222q-310 0 -529.5 -222t-219.5 -532zM561 660 q0 226 134.5 354.5t356.5 128.5q148 0 323 -76v-181h-16q-157 110 -312 110q-142 0 -221.5 -85.5t-79.5 -250.5q0 -333 301 -333q160 0 312 110h16v-179q-174 -78 -323 -78q-227 0 -359 123t-132 357z" />
<glyph unicode="&#xaa;" horiz-adv-x="1117" d="M151 833q0 161 117.5 247.5t505.5 102.5v18q0 82 -48.5 123t-189.5 41q-114 0 -291 -62h-14v172q168 45 306 45q407 0 407 -328v-638h-170v94l-26 -19q-129 -98 -294 -98q-128 0 -215.5 84.5t-87.5 217.5zM326 843q0 -152 185 -152q127 0 263 105v245l-161 -12 q-287 -21 -287 -186z" />
<glyph unicode="&#xab;" horiz-adv-x="1320" d="M166 608v89l550 445v-196l-371 -294l371 -294v-196zM618 610v85l528 418v-188l-357 -273l357 -273v-188z" />
<glyph unicode="&#xac;" horiz-adv-x="1676" d="M210 602v160h1246v-705h-171v545h-1075z" />
<glyph unicode="&#xad;" horiz-adv-x="930" d="M153 561v181h624v-181h-624z" />
<glyph unicode="&#xae;" horiz-adv-x="2048" d="M159 655q0 358 253.5 611.5t611.5 253.5q357 0 611 -254t254 -611q0 -358 -253.5 -611.5t-611.5 -253.5q-359 0 -612 253t-253 612zM275 655q0 -310 219.5 -532t529.5 -222q309 0 529 222t220 532t-220 532t-529 222q-310 0 -529.5 -222t-219.5 -532zM700 215v915h312 q229 0 313 -69.5t84 -181.5q0 -183 -212 -264l384 -400h-223l-331 355h-162v-355h-165zM865 696h127q237 0 237 172q0 137 -215 137h-149v-309z" />
<glyph unicode="&#xaf;" d="M-4 1668v120h1310v-120h-1310z" />
<glyph unicode="&#xb0;" horiz-adv-x="1110" d="M154 1116q0 168 116 284t285 116t285 -116t116 -284t-116 -284t-285 -116q-170 0 -285.5 116t-115.5 284zM319 1116q0 -104 68 -172.5t168 -68.5q102 0 169 70t67 171q0 103 -67.5 172t-168.5 69t-168.5 -69t-67.5 -172z" />
<glyph unicode="&#xb1;" horiz-adv-x="1676" d="M215 179v158h540v422h-540v158h540v545h166v-545h540v-158h-540v-422h540v-158h-1246z" />
<glyph unicode="&#xb2;" horiz-adv-x="1110" d="M207 566v156q231 145 343 231.5t146 140t34 131.5q0 69 -53 107t-144 38q-153 0 -309 -92h-13v180q173 61 333 61q180 0 273.5 -79t93.5 -203q0 -151 -126 -266.5t-362 -259.5h544v-145h-760z" />
<glyph unicode="&#xb3;" horiz-adv-x="1110" d="M207 585v179h14q42 -37 139 -66t190 -29q233 0 233 146q0 85 -59 115t-171 30h-143v141h128q219 0 219 145q0 132 -203 132q-80 0 -176.5 -31.5t-139.5 -66.5h-14v178q175 62 337 62q173 0 270.5 -67.5t97.5 -174.5q0 -170 -199 -229v-8q226 -46 226 -224 q0 -139 -110.5 -214.5t-305.5 -75.5q-178 0 -333 58z" />
<glyph unicode="&#xb4;" d="M541 1302l179 374h243l-273 -374h-149z" />
<glyph unicode="&#xb5;" horiz-adv-x="1314" d="M190 -412v1529h188v-838q113 -121 278 -121q166 0 280 127v832h188v-1117h-178l-10 118q-123 -139 -279 -139q-145 0 -279 134v-525h-188z" />
<glyph unicode="&#xb6;" d="M137 1050q0 209 131 324t372 115h466v-1852h-148v1722h-214v-1722h-149v956q-206 5 -332 129t-126 328z" />
<glyph unicode="&#xb7;" horiz-adv-x="745" d="M253 511v283h239v-283h-239z" />
<glyph unicode="&#xb8;" d="M353 -237h9q94 -36 164 -36q202 0 202 166q0 46 -9 127h153q8 -69 8 -109q0 -162 -92 -248t-237 -86q-92 0 -198 26v160z" />
<glyph unicode="&#xb9;" horiz-adv-x="1110" d="M291 1256v112q261 0 267 125h135v-805h221v-122h-615v122h234v568h-242z" />
<glyph unicode="&#xba;" horiz-adv-x="1117" d="M121 1025q0 229 118 362t320 133q195 0 316 -131t121 -364q0 -234 -121 -364t-316 -130q-203 0 -320.5 132.5t-117.5 361.5zM303 1025q0 -343 256 -343q255 0 255 343q0 344 -255 344q-256 0 -256 -344z" />
<glyph unicode="&#xbb;" horiz-adv-x="1320" d="M174 191v188l357 273l-357 273v188l528 -418v-85zM604 162v196l371 294l-371 294v196l550 -445v-89z" />
<glyph unicode="&#xbc;" horiz-adv-x="2048" d="M172 1246v117q104 0 166 22.5t71 107.5h137v-928h-165v681h-209zM465 0l780 1489h165l-780 -1489h-165zM1039 220v185l506 539h149v-591h163v-133h-163v-220h-150v220h-505zM1155 353h393v400z" />
<glyph unicode="&#xbd;" horiz-adv-x="2048" d="M172 1246v117q104 0 166 22.5t71 107.5h137v-928h-165v681h-209zM465 0l780 1489h165l-780 -1489h-165zM1267 0v148q196 149 283.5 227.5t120.5 138t33 138.5q0 144 -164 144q-127 0 -254 -92h-15v179q152 61 293 61q158 0 242 -79.5t84 -200.5q0 -124 -76.5 -220 t-231.5 -211l-66 -50q-31 -24 -59 -44h498v-139h-688z" />
<glyph unicode="&#xbe;" horiz-adv-x="2048" d="M140 598v175h17q112 -94 270 -94q90 0 142 39t52 106q0 142 -191 142h-140v139h125q182 0 182 142q0 131 -169 131q-139 0 -256 -97h-17v175q147 61 293 61q152 0 237 -70t85 -168q0 -166 -174 -226v-8q197 -48 197 -219q0 -128 -95.5 -207t-267.5 -79q-153 0 -290 58z M555 0l780 1489h165l-780 -1489h-165zM1095 220v185l506 539h149v-591h163v-133h-163v-220h-150v220h-505zM1211 353h393v400z" />
<glyph unicode="&#xbf;" horiz-adv-x="1117" d="M113 350q0 139 79 253.5t332 260.5v225h179v-305q-265 -147 -325.5 -234.5t-60.5 -184.5q0 -114 76 -169t198 -55q185 0 357 103h10v-204q-196 -70 -381 -70q-216 0 -340 104t-124 276zM508 1278v211h204v-211h-204z" />
<glyph unicode="&#xc0;" horiz-adv-x="1400" d="M26 0l542 1489h264l542 -1489h-211l-146 415h-644l-146 -415h-201zM433 585h523l-261 731zM440 2049h243l179 -374h-149z" />
<glyph unicode="&#xc1;" horiz-adv-x="1400" d="M26 0l542 1489h264l542 -1489h-211l-146 415h-644l-146 -415h-201zM433 585h523l-261 731zM534 1675l179 374h243l-273 -374h-149z" />
<glyph unicode="&#xc2;" horiz-adv-x="1400" d="M26 0l542 1489h264l542 -1489h-211l-146 415h-644l-146 -415h-201zM350 1670l228 379h227l228 -379h-159l-185 256l-184 -256h-155zM433 585h523l-261 731z" />
<glyph unicode="&#xc3;" horiz-adv-x="1400" d="M26 0l542 1489h264l542 -1489h-211l-146 415h-644l-146 -415h-201zM288 1682q7 149 78 227t175 78q98 0 185 -75q94 -82 153 -82q101 0 111 162h129q-22 -306 -254 -306q-101 0 -187 76q-94 86 -151 86q-98 0 -108 -166h-131zM433 585h523l-261 731z" />
<glyph unicode="&#xc4;" horiz-adv-x="1400" d="M26 0l542 1489h264l542 -1489h-211l-146 415h-644l-146 -415h-201zM393 1677v195h199v-195h-199zM433 585h523l-261 731zM806 1677v195h199v-195h-199z" />
<glyph unicode="&#xc5;" horiz-adv-x="1400" d="M26 0l519 1407q-196 102 -196 305q0 141 101 239t249 98t249 -98t101 -239q0 -208 -194 -305l519 -1407h-211l-148 415h-640l-148 -415h-201zM436 585h517l-258 715zM499 1710q0 -87 57 -144t143 -57q87 0 143.5 57.5t56.5 143.5t-57.5 143.5t-142.5 57.5 q-87 0 -143.5 -58.5t-56.5 -142.5z" />
<glyph unicode="&#xc6;" horiz-adv-x="2016" d="M14 0l594 1489h1293v-176h-749v-408h749v-176h-749v-553h749v-176h-944v556h-524l-212 -556h-207zM499 723h458v601h-219z" />
<glyph unicode="&#xc7;" horiz-adv-x="1430" d="M115 743q0 366 198.5 569.5t531.5 203.5q249 0 505 -131v-235h-15q-233 197 -503 197q-239 0 -375 -161.5t-136 -442.5q0 -277 138 -438t375 -161q285 0 502 196h14v-232q-57 -24 -100 -45q-188 -90 -406 -90q-349 0 -539 202.5t-190 567.5zM554 -237h9q94 -36 164 -36 q202 0 202 166q0 46 -9 127h153q8 -69 8 -109q0 -162 -92 -248t-237 -86q-92 0 -198 26v160z" />
<glyph unicode="&#xc8;" horiz-adv-x="1295" d="M200 0v1489h981v-176h-783v-408h783v-176h-783v-553h783v-176h-981zM400 2049h243l179 -374h-149z" />
<glyph unicode="&#xc9;" horiz-adv-x="1295" d="M200 0v1489h981v-176h-783v-408h783v-176h-783v-553h783v-176h-981zM571 1675l179 374h243l-273 -374h-149z" />
<glyph unicode="&#xca;" horiz-adv-x="1295" d="M200 0v1489h981v-176h-783v-408h783v-176h-783v-553h783v-176h-981zM348 1670l228 379h227l228 -379h-159l-185 256l-184 -256h-155z" />
<glyph unicode="&#xcb;" horiz-adv-x="1295" d="M200 0v1489h981v-176h-783v-408h783v-176h-783v-553h783v-176h-981zM426 1677v195h199v-195h-199zM839 1677v195h199v-195h-199z" />
<glyph unicode="&#xcc;" horiz-adv-x="862" d="M137 0v152h195v1185h-195v152h588v-152h-195v-1185h195v-152h-588zM147 2049h243l179 -374h-149z" />
<glyph unicode="&#xcd;" horiz-adv-x="862" d="M137 0v152h195v1185h-195v152h588v-152h-195v-1185h195v-152h-588zM304 1675l179 374h243l-273 -374h-149z" />
<glyph unicode="&#xce;" horiz-adv-x="862" d="M94 1670l228 379h227l228 -379h-159l-185 256l-184 -256h-155zM137 0v152h195v1185h-195v152h588v-152h-195v-1185h195v-152h-588z" />
<glyph unicode="&#xcf;" horiz-adv-x="862" d="M127 1677v195h199v-195h-199zM137 0v152h195v1185h-195v152h588v-152h-195v-1185h195v-152h-588zM540 1677v195h199v-195h-199z" />
<glyph unicode="&#xd0;" horiz-adv-x="1588" d="M14 740v143h196v606h372q350 0 526.5 -97t268 -261t91.5 -388q0 -252 -128.5 -434t-307 -245.5t-446.5 -63.5h-376v740h-196zM406 170h188q364 0 515.5 150.5t151.5 425.5q0 573 -667 573h-188v-436h361v-143h-361v-570z" />
<glyph unicode="&#xd1;" horiz-adv-x="1532" d="M200 0v1489h307l644 -1216v1216h185v-1489h-245l-706 1332v-1332h-185zM377 1682q7 149 78 227t175 78q98 0 185 -75q94 -82 153 -82q101 0 111 162h129q-22 -306 -254 -306q-101 0 -187 76q-94 86 -151 86q-98 0 -108 -166h-131z" />
<glyph unicode="&#xd2;" horiz-adv-x="1612" d="M115 744q0 365 185 570.5t506 205.5q319 0 505.5 -205t186.5 -571q0 -359 -183.5 -567t-508.5 -208q-319 0 -505 204.5t-186 570.5zM321 744q0 -293 131.5 -448.5t354.5 -155.5t354 156t131 448q0 291 -131 448t-354 157q-226 0 -356 -157t-130 -448zM510 2049h243 l179 -374h-149z" />
<glyph unicode="&#xd3;" horiz-adv-x="1612" d="M115 744q0 365 185 570.5t506 205.5q319 0 505.5 -205t186.5 -571q0 -359 -183.5 -567t-508.5 -208q-319 0 -505 204.5t-186 570.5zM321 744q0 -293 131.5 -448.5t354.5 -155.5t354 156t131 448q0 291 -131 448t-354 157q-226 0 -356 -157t-130 -448zM661 1675l179 374 h243l-273 -374h-149z" />
<glyph unicode="&#xd4;" horiz-adv-x="1612" d="M115 744q0 365 185 570.5t506 205.5q319 0 505.5 -205t186.5 -571q0 -359 -183.5 -567t-508.5 -208q-319 0 -505 204.5t-186 570.5zM321 744q0 -293 131.5 -448.5t354.5 -155.5t354 156t131 448q0 291 -131 448t-354 157q-226 0 -356 -157t-130 -448zM453 1670l228 379 h227l228 -379h-159l-185 256l-184 -256h-155z" />
<glyph unicode="&#xd5;" horiz-adv-x="1612" d="M115 744q0 365 185 570.5t506 205.5q319 0 505.5 -205t186.5 -571q0 -359 -183.5 -567t-508.5 -208q-319 0 -505 204.5t-186 570.5zM321 744q0 -293 131.5 -448.5t354.5 -155.5t354 156t131 448q0 291 -131 448t-354 157q-226 0 -356 -157t-130 -448zM376 1682 q7 149 78 227t175 78q98 0 185 -75q94 -82 153 -82q101 0 111 162h129q-22 -306 -254 -306q-101 0 -187 76q-94 86 -151 86q-98 0 -108 -166h-131z" />
<glyph unicode="&#xd6;" horiz-adv-x="1612" d="M115 744q0 365 185 570.5t506 205.5q319 0 505.5 -205t186.5 -571q0 -359 -183.5 -567t-508.5 -208q-319 0 -505 204.5t-186 570.5zM321 744q0 -293 131.5 -448.5t354.5 -155.5t354 156t131 448q0 291 -131 448t-354 157q-226 0 -356 -157t-130 -448zM496 1677v195h199 v-195h-199zM909 1677v195h199v-195h-199z" />
<glyph unicode="&#xd7;" horiz-adv-x="1676" d="M291 216l440 436l-440 436l111 111l436 -440l436 440l111 -111l-440 -436l440 -436l-111 -111l-436 440l-436 -440z" />
<glyph unicode="&#xd8;" horiz-adv-x="1612" d="M115 744q0 365 185 570.5t506 205.5q230 0 394 -110l142 201h132l-188 -268q212 -210 212 -599q0 -359 -183.5 -567t-508.5 -208q-231 0 -395 113l-159 -228h-132l205 294q-210 208 -210 596zM318 744q0 -286 117 -440l662 956q-113 91 -290 91q-228 0 -358.5 -158.5 t-130.5 -448.5zM513 229q121 -91 294 -91q225 0 356.5 158.5t131.5 447.5q0 288 -118 442z" />
<glyph unicode="&#xd9;" horiz-adv-x="1499" d="M178 598v891h198v-901q0 -144 29.5 -238t115 -152.5t228.5 -58.5q180 0 277 99.5t97 344.5v906h198v-891q0 -629 -572 -629q-571 0 -571 629zM510 2049h243l179 -374h-149z" />
<glyph unicode="&#xda;" horiz-adv-x="1499" d="M178 598v891h198v-901q0 -144 29.5 -238t115 -152.5t228.5 -58.5q180 0 277 99.5t97 344.5v906h198v-891q0 -629 -572 -629q-571 0 -571 629zM651 1675l179 374h243l-273 -374h-149z" />
<glyph unicode="&#xdb;" horiz-adv-x="1499" d="M178 598v891h198v-901q0 -144 29.5 -238t115 -152.5t228.5 -58.5q180 0 277 99.5t97 344.5v906h198v-891q0 -629 -572 -629q-571 0 -571 629zM401 1670l228 379h227l228 -379h-159l-185 256l-184 -256h-155z" />
<glyph unicode="&#xdc;" horiz-adv-x="1499" d="M178 598v891h198v-901q0 -144 29.5 -238t115 -152.5t228.5 -58.5q180 0 277 99.5t97 344.5v906h198v-891q0 -629 -572 -629q-571 0 -571 629zM444 1677v195h199v-195h-199zM857 1677v195h199v-195h-199z" />
<glyph unicode="&#xdd;" horiz-adv-x="1260" d="M6 1489h219l407 -666l411 666h211l-524 -836v-653h-198v632zM514 1675l179 374h243l-273 -374h-149z" />
<glyph unicode="&#xde;" horiz-adv-x="1240" d="M200 0v1489h198v-270h205q294 0 432.5 -115.5t138.5 -316.5q0 -204 -148 -334.5t-430 -130.5h-198v-322h-198zM398 488h167q403 0 403 294q0 269 -374 269h-196v-563z" />
<glyph unicode="&#xdf;" horiz-adv-x="1270" d="M185 0v1080q0 228 124 357t345 129q183 0 297.5 -87.5t114.5 -237.5q0 -112 -71 -201t-184 -121v-9q166 -38 260 -150t94 -279q0 -214 -135.5 -359.5t-354.5 -145.5q-118 0 -195 28v165h10q71 -42 197 -42q135 0 209 96.5t74 265.5q0 335 -409 335v150q311 0 311 248 q0 86 -61.5 141t-166.5 55q-271 0 -271 -331v-1087h-188z" />
<glyph unicode="&#xe0;" horiz-adv-x="1230" d="M104 324q0 202 151.5 299.5t610.5 114.5v29q0 106 -66 158.5t-234 52.5q-153 0 -353 -76h-10v191q203 51 364 51q259 0 372.5 -96.5t113.5 -289.5v-758h-187v119q-135 -99 -224 -124.5t-177 -25.5q-152 0 -256.5 100.5t-104.5 254.5zM298 337q0 -193 235 -193 q165 0 333 131v311q-373 -17 -470.5 -78t-97.5 -171zM317 1676h243l179 -374h-149z" />
<glyph unicode="&#xe1;" horiz-adv-x="1230" d="M104 324q0 202 151.5 299.5t610.5 114.5v29q0 106 -66 158.5t-234 52.5q-153 0 -353 -76h-10v191q203 51 364 51q259 0 372.5 -96.5t113.5 -289.5v-758h-187v119q-135 -99 -224 -124.5t-177 -25.5q-152 0 -256.5 100.5t-104.5 254.5zM298 337q0 -193 235 -193 q165 0 333 131v311q-373 -17 -470.5 -78t-97.5 -171zM513 1302l179 374h243l-273 -374h-149z" />
<glyph unicode="&#xe2;" horiz-adv-x="1230" d="M104 324q0 202 151.5 299.5t610.5 114.5v29q0 106 -66 158.5t-234 52.5q-153 0 -353 -76h-10v191q203 51 364 51q259 0 372.5 -96.5t113.5 -289.5v-758h-187v119q-135 -99 -224 -124.5t-177 -25.5q-152 0 -256.5 100.5t-104.5 254.5zM279 1297l228 379h227l228 -379h-159 l-185 256l-184 -256h-155zM298 337q0 -193 235 -193q165 0 333 131v311q-373 -17 -470.5 -78t-97.5 -171z" />
<glyph unicode="&#xe3;" horiz-adv-x="1230" d="M104 324q0 202 151.5 299.5t610.5 114.5v29q0 106 -66 158.5t-234 52.5q-153 0 -353 -76h-10v191q203 51 364 51q259 0 372.5 -96.5t113.5 -289.5v-758h-187v119q-135 -99 -224 -124.5t-177 -25.5q-152 0 -256.5 100.5t-104.5 254.5zM208 1309q7 149 78 227t175 78 q98 0 185 -75q94 -82 153 -82q101 0 111 162h129q-22 -306 -254 -306q-101 0 -187 76q-94 86 -151 86q-98 0 -108 -166h-131zM298 337q0 -193 235 -193q165 0 333 131v311q-373 -17 -470.5 -78t-97.5 -171z" />
<glyph unicode="&#xe4;" horiz-adv-x="1230" d="M104 324q0 202 151.5 299.5t610.5 114.5v29q0 106 -66 158.5t-234 52.5q-153 0 -353 -76h-10v191q203 51 364 51q259 0 372.5 -96.5t113.5 -289.5v-758h-187v119q-135 -99 -224 -124.5t-177 -25.5q-152 0 -256.5 100.5t-104.5 254.5zM298 337q0 -193 235 -193 q165 0 333 131v311q-373 -17 -470.5 -78t-97.5 -171zM315 1304v195h199v-195h-199zM728 1304v195h199v-195h-199z" />
<glyph unicode="&#xe5;" horiz-adv-x="1230" d="M104 324q0 202 151.5 299.5t610.5 114.5v29q0 106 -66 158.5t-234 52.5q-153 0 -353 -76h-10v191q203 51 364 51q259 0 372.5 -96.5t113.5 -289.5v-758h-187v119q-135 -99 -224 -124.5t-177 -25.5q-152 0 -256.5 100.5t-104.5 254.5zM257 1630q0 144 102.5 241.5 t247.5 97.5q147 0 248.5 -98.5t101.5 -240.5q0 -143 -102 -242t-248 -99q-144 0 -247 98t-103 243zM298 337q0 -193 235 -193q165 0 333 131v311q-373 -17 -470.5 -78t-97.5 -171zM402 1630q0 -87 59 -146t146 -59t146 59t59 146q0 86 -59.5 145.5t-145.5 59.5 q-87 0 -146 -58t-59 -147z" />
<glyph unicode="&#xe6;" horiz-adv-x="1956" d="M104 317q0 193 143.5 287.5t614.5 101.5v61q0 113 -71 163t-228 50q-149 0 -348 -78h-13v191q206 53 362 53q312 0 427 -184q159 186 396 186q217 0 342.5 -128.5t125.5 -378.5v-82h-819q0 -421 395 -421q208 0 390 135h12v-205q-215 -94 -400 -94q-327 0 -479 207 q-216 -210 -489 -210q-150 0 -255.5 96.5t-105.5 249.5zM298 331q0 -187 234 -187q196 0 362 154q-41 108 -41 260q-341 -4 -448 -57.5t-107 -169.5zM1039 703h634q-22 290 -296 290q-134 0 -224 -76t-114 -214z" />
<glyph unicode="&#xe7;" horiz-adv-x="1067" d="M105 557q0 275 150.5 430.5t397.5 155.5q168 0 358 -93v-209h-10q-182 139 -356 139q-165 0 -255 -111t-90 -312q0 -203 90 -311t255 -108q178 0 356 139h10v-207q-192 -95 -358 -95q-257 0 -402.5 151t-145.5 431zM353 -237h9q94 -36 164 -36q202 0 202 166q0 46 -9 127 h153q8 -69 8 -109q0 -162 -92 -248t-237 -86q-92 0 -198 26v160z" />
<glyph unicode="&#xe8;" horiz-adv-x="1220" d="M106 552q0 275 149.5 435.5t393.5 160.5q226 0 348.5 -132.5t122.5 -374.5v-102h-823q0 -188 105.5 -294.5t291.5 -106.5q218 0 394 135h10v-205q-226 -94 -402 -94q-279 0 -434.5 150.5t-155.5 427.5zM297 683h640q-2 310 -298 310q-149 0 -239 -87.5t-103 -222.5z M338 1676h243l179 -374h-149z" />
<glyph unicode="&#xe9;" horiz-adv-x="1220" d="M106 552q0 275 149.5 435.5t393.5 160.5q226 0 348.5 -132.5t122.5 -374.5v-102h-823q0 -188 105.5 -294.5t291.5 -106.5q218 0 394 135h10v-205q-226 -94 -402 -94q-279 0 -434.5 150.5t-155.5 427.5zM297 683h640q-2 310 -298 310q-149 0 -239 -87.5t-103 -222.5z M539 1302l179 374h243l-273 -374h-149z" />
<glyph unicode="&#xea;" horiz-adv-x="1220" d="M106 552q0 275 149.5 435.5t393.5 160.5q226 0 348.5 -132.5t122.5 -374.5v-102h-823q0 -188 105.5 -294.5t291.5 -106.5q218 0 394 135h10v-205q-226 -94 -402 -94q-279 0 -434.5 150.5t-155.5 427.5zM297 683h640q-2 310 -298 310q-149 0 -239 -87.5t-103 -222.5z M304 1297l228 379h227l228 -379h-159l-185 256l-184 -256h-155z" />
<glyph unicode="&#xeb;" horiz-adv-x="1220" d="M106 552q0 275 149.5 435.5t393.5 160.5q226 0 348.5 -132.5t122.5 -374.5v-102h-823q0 -188 105.5 -294.5t291.5 -106.5q218 0 394 135h10v-205q-226 -94 -402 -94q-279 0 -434.5 150.5t-155.5 427.5zM297 683h640q-2 310 -298 310q-149 0 -239 -87.5t-103 -222.5z M340 1304v195h199v-195h-199zM753 1304v195h199v-195h-199z" />
<glyph unicode="&#xec;" horiz-adv-x="562" d="M-20 1676h243l179 -374h-149zM187 0v1117h188v-1117h-188z" />
<glyph unicode="&#xed;" horiz-adv-x="562" d="M161 1302l179 374h243l-273 -374h-149zM187 0v1117h188v-1117h-188z" />
<glyph unicode="&#xee;" horiz-adv-x="562" d="M-11 1297l178 379h227l178 -379h-151l-143 267l-142 -267h-147zM187 0v1117h188v-1117h-188z" />
<glyph unicode="&#xef;" horiz-adv-x="562" d="M5 1304v195h189v-195h-189zM187 0v1117h188v-1117h-188zM368 1304v195h189v-195h-189z" />
<glyph unicode="&#xf0;" horiz-adv-x="1253" d="M106 484q0 225 136.5 357.5t339.5 132.5q179 0 349 -106q-72 243 -254 400l-264 -162l-66 97l237 142q-102 86 -321 195v16h295q21 -16 170 -118l210 128l66 -97l-186 -109q319 -306 319 -723q0 -324 -142 -496t-383 -172q-229 0 -367.5 134.5t-138.5 380.5zM301 482 q0 -181 84.5 -267.5t227.5 -86.5q335 0 335 476q0 43 -5 117q-147 88 -326 88q-146 0 -231 -87t-85 -240z" />
<glyph unicode="&#xf1;" horiz-adv-x="1296" d="M185 0v1117h188v-124q187 155 375 155q371 0 371 -423v-725h-188v636q0 202 -53 267.5t-183 65.5q-144 0 -322 -135v-834h-188zM244 1309q7 149 78 227t175 78q98 0 185 -75q94 -82 153 -82q101 0 111 162h129q-22 -306 -254 -306q-101 0 -187 76q-94 86 -151 86 q-98 0 -108 -166h-131z" />
<glyph unicode="&#xf2;" horiz-adv-x="1243" d="M106 558q0 274 139.5 432t376.5 158q234 0 374.5 -158.5t140.5 -431.5t-140 -431t-375 -158q-236 0 -376 157t-140 432zM300 558q0 -211 84.5 -319t237.5 -108q150 0 235.5 107.5t85.5 319.5q0 428 -321 428q-322 0 -322 -428zM311 1676h243l179 -374h-149z" />
<glyph unicode="&#xf3;" horiz-adv-x="1243" d="M106 558q0 274 139.5 432t376.5 158q234 0 374.5 -158.5t140.5 -431.5t-140 -431t-375 -158q-236 0 -376 157t-140 432zM300 558q0 -211 84.5 -319t237.5 -108q150 0 235.5 107.5t85.5 319.5q0 428 -321 428q-322 0 -322 -428zM512 1302l179 374h243l-273 -374h-149z" />
<glyph unicode="&#xf4;" horiz-adv-x="1243" d="M106 558q0 274 139.5 432t376.5 158q234 0 374.5 -158.5t140.5 -431.5t-140 -431t-375 -158q-236 0 -376 157t-140 432zM281 1297l228 379h227l228 -379h-159l-185 256l-184 -256h-155zM300 558q0 -211 84.5 -319t237.5 -108q150 0 235.5 107.5t85.5 319.5 q0 428 -321 428q-322 0 -322 -428z" />
<glyph unicode="&#xf5;" horiz-adv-x="1243" d="M106 558q0 274 139.5 432t376.5 158q234 0 374.5 -158.5t140.5 -431.5t-140 -431t-375 -158q-236 0 -376 157t-140 432zM208 1309q7 149 78 227t175 78q98 0 185 -75q94 -82 153 -82q101 0 111 162h129q-22 -306 -254 -306q-101 0 -187 76q-94 86 -151 86 q-98 0 -108 -166h-131zM300 558q0 -211 84.5 -319t237.5 -108q150 0 235.5 107.5t85.5 319.5q0 428 -321 428q-322 0 -322 -428z" />
<glyph unicode="&#xf6;" horiz-adv-x="1243" d="M106 558q0 274 139.5 432t376.5 158q234 0 374.5 -158.5t140.5 -431.5t-140 -431t-375 -158q-236 0 -376 157t-140 432zM300 558q0 -211 84.5 -319t237.5 -108q150 0 235.5 107.5t85.5 319.5q0 428 -321 428q-322 0 -322 -428zM317 1304v195h199v-195h-199zM730 1304v195 h199v-195h-199z" />
<glyph unicode="&#xf7;" horiz-adv-x="1676" d="M210 572v160h1256v-160h-1256zM719 7v275h238v-275h-238zM719 1022v275h238v-275h-238z" />
<glyph unicode="&#xf8;" horiz-adv-x="1243" d="M93 -148l171 256q-158 166 -158 450q0 274 139.5 432t376.5 158q159 0 283 -79l116 172h111l-155 -231q160 -162 160 -452q0 -273 -140 -431t-375 -158q-161 0 -286 81l-133 -198h-110zM297 558q0 -193 69 -299l447 671q-74 58 -191 58q-156 0 -240.5 -109.5 t-84.5 -320.5zM429 190q77 -61 193 -61q155 0 239.5 111.5t84.5 317.5q0 193 -69 303z" />
<glyph unicode="&#xf9;" horiz-adv-x="1296" d="M177 392v725h188v-636q0 -188 48 -260.5t189 -72.5q142 0 321 135v834h188v-1117h-188v124q-193 -155 -374 -155q-179 0 -275.5 109t-96.5 314zM342 1676h243l179 -374h-149z" />
<glyph unicode="&#xfa;" horiz-adv-x="1296" d="M177 392v725h188v-636q0 -188 48 -260.5t189 -72.5q142 0 321 135v834h188v-1117h-188v124q-193 -155 -374 -155q-179 0 -275.5 109t-96.5 314zM524 1302l179 374h243l-273 -374h-149z" />
<glyph unicode="&#xfb;" horiz-adv-x="1296" d="M177 392v725h188v-636q0 -188 48 -260.5t189 -72.5q142 0 321 135v834h188v-1117h-188v124q-193 -155 -374 -155q-179 0 -275.5 109t-96.5 314zM303 1297l228 379h227l228 -379h-159l-185 256l-184 -256h-155z" />
<glyph unicode="&#xfc;" horiz-adv-x="1296" d="M177 392v725h188v-636q0 -188 48 -260.5t189 -72.5q142 0 321 135v834h188v-1117h-188v124q-193 -155 -374 -155q-179 0 -275.5 109t-96.5 314zM344 1304v195h199v-195h-199zM757 1304v195h199v-195h-199z" />
<glyph unicode="&#xfd;" horiz-adv-x="1212" d="M61 1117h204l343 -828l346 828h197l-652 -1529h-201l208 466zM507 1302l179 374h243l-273 -374h-149z" />
<glyph unicode="&#xfe;" horiz-adv-x="1276" d="M185 -412v1968h188v-556q177 148 368 148q200 0 313.5 -152.5t113.5 -423.5q0 -269 -142.5 -431.5t-351.5 -162.5q-161 0 -301 78v-468h-188zM373 209q133 -62 268 -62q157 0 245 106t88 314q0 402 -281 402q-150 0 -320 -127v-633z" />
<glyph unicode="&#xff;" horiz-adv-x="1212" d="M61 1117h204l343 -828l346 828h197l-652 -1529h-201l208 466zM312 1304v195h199v-195h-199zM725 1304v195h199v-195h-199z" />
<glyph unicode="&#x152;" horiz-adv-x="2191" d="M120 743q0 262 124 435t300 242t462 69h1070v-176h-763v-408h763v-176h-763v-553h763v-176h-1074q-263 0 -439.5 60t-309.5 242t-133 441zM327 746q0 -268 149.5 -421t517.5 -153h122v1145h-122q-220 0 -353.5 -51.5t-223.5 -179.5t-90 -340z" />
<glyph unicode="&#x153;" horiz-adv-x="2010" d="M106 558q0 277 139.5 433.5t366.5 156.5q267 0 408 -235q160 235 429 235q223 0 342 -133t119 -374v-102h-804q0 -192 103.5 -296.5t283.5 -104.5q206 0 384 135h12v-205q-219 -94 -394 -94q-310 0 -474 226q-144 -231 -409 -231q-232 0 -369 157t-137 432zM300 558 q0 -207 82 -317t231 -110q146 0 228.5 106.5t82.5 320.5q0 215 -82 321.5t-229 106.5q-153 0 -233 -112t-80 -316zM1108 683h619q-6 310 -289 310q-138 0 -225 -80.5t-105 -229.5z" />
<glyph unicode="&#x178;" horiz-adv-x="1260" d="M6 1489h219l407 -666l411 666h211l-524 -836v-653h-198v632zM328 1677v195h199v-195h-199zM741 1677v195h199v-195h-199z" />
<glyph unicode="&#x2c6;" d="M310 1297l228 379h227l228 -379h-159l-185 256l-184 -256h-155z" />
<glyph unicode="&#x2dc;" d="M237 1309q7 149 78 227t175 78q98 0 185 -75q94 -82 153 -82q101 0 111 162h129q-22 -306 -254 -306q-101 0 -187 76q-94 86 -151 86q-98 0 -108 -166h-131z" />
<glyph unicode="&#x2000;" horiz-adv-x="1024" />
<glyph unicode="&#x2001;" horiz-adv-x="2049" />
<glyph unicode="&#x2002;" horiz-adv-x="1024" />
<glyph unicode="&#x2003;" horiz-adv-x="2049" />
<glyph unicode="&#x2004;" horiz-adv-x="683" />
<glyph unicode="&#x2005;" horiz-adv-x="512" />
<glyph unicode="&#x2006;" horiz-adv-x="341" />
<glyph unicode="&#x2007;" horiz-adv-x="341" />
<glyph unicode="&#x2008;" horiz-adv-x="256" />
<glyph unicode="&#x2009;" horiz-adv-x="409" />
<glyph unicode="&#x200a;" horiz-adv-x="113" />
<glyph unicode="&#x2010;" horiz-adv-x="930" d="M153 561v181h624v-181h-624z" />
<glyph unicode="&#x2011;" horiz-adv-x="930" d="M153 561v181h624v-181h-624z" />
<glyph unicode="&#x2012;" horiz-adv-x="930" d="M153 561v181h624v-181h-624z" />
<glyph unicode="&#x2013;" d="M153 572v160h996v-160h-996z" />
<glyph unicode="&#x2014;" horiz-adv-x="2048" d="M153 572v160h1742v-160h-1742z" />
<glyph unicode="&#x2018;" horiz-adv-x="690" d="M121 997l271 559h138l-165 -559h-244z" />
<glyph unicode="&#x2019;" horiz-adv-x="690" d="M160 997l165 559h244l-271 -559h-138z" />
<glyph unicode="&#x201a;" horiz-adv-x="690" d="M130 -276l165 559h244l-271 -559h-138z" />
<glyph unicode="&#x201c;" horiz-adv-x="1080" d="M121 997l271 559h134l-165 -559h-240zM525 997l271 559h134l-165 -559h-240z" />
<glyph unicode="&#x201d;" horiz-adv-x="1080" d="M150 997l165 559h240l-271 -559h-134zM554 997l165 559h240l-271 -559h-134z" />
<glyph unicode="&#x201e;" horiz-adv-x="1080" d="M130 -276l165 559h240l-271 -559h-134zM534 -276l165 559h240l-271 -559h-134z" />
<glyph unicode="&#x2022;" horiz-adv-x="1117" d="M185 662q0 154 110 263.5t263 109.5q154 0 264 -110t110 -263t-109.5 -263t-264.5 -110t-264 109t-109 264z" />
<glyph unicode="&#x2026;" horiz-adv-x="1676" d="M178 0v223h204v-223h-204zM736 0v223h204v-223h-204zM1294 0v223h204v-223h-204z" />
<glyph unicode="&#x202f;" horiz-adv-x="409" />
<glyph unicode="&#x2039;" horiz-adv-x="930" d="M186 608v89l550 435v-199l-371 -281l371 -281v-199z" />
<glyph unicode="&#x203a;" horiz-adv-x="930" d="M194 172v199l371 281l-371 281v199l550 -435v-89z" />
<glyph unicode="&#x205f;" horiz-adv-x="512" />
<glyph unicode="&#x20ac;" d="M-2 528l48 131h73q-4 20 -4 85q0 53 4 97h-121l49 131h95q52 250 236.5 397.5t445.5 147.5q219 0 402 -86v-201h-20q-164 114 -379 114q-362 0 -475 -372h529l-50 -131h-506q-5 -56 -5 -97q0 -51 4 -85h439l-48 -131h-364q38 -176 162.5 -281t295.5 -105q237 0 400 117 h17v-196q-195 -91 -432 -91q-250 0 -428.5 152t-226.5 404h-141z" />
<glyph unicode="&#x2122;" horiz-adv-x="2000" d="M170 1372v117h585v-117h-229v-587h-127v587h-229zM930 785v704h238l191 -382l191 382h227v-704h-124v617h-20l-237 -451h-79l-239 458h-25v-624h-123z" />
<glyph unicode="&#x25fc;" horiz-adv-x="1115" d="M0 0v1115h1115v-1115h-1115z" />
</font>
</defs>
</svg>
